<svg width="180" height="46" viewBox="0 0 180 46" fill="none" xmlns="http://www.w3.org/2000/svg">
    <path d="M24.0536 27.4539L32.262 35.5221C33.3565 36.5991 34.7529 37.2765 36.2436 37.4536C37.7343 37.6307 39.2396 37.2979 40.5357 36.5049L73.5 16.3916L69.4502 11.1805C68.3968 9.82982 66.9178 8.91925 65.2807 8.61326C63.6435 8.30727 61.9561 8.62604 60.5233 9.51197L50.8561 15.4774L37.7923 10.9062L34.1998 12.529C33.931 12.6499 33.6956 12.8399 33.5151 13.0814C33.3347 13.323 33.2151 13.6084 33.1674 13.9112C33.1197 14.214 33.1454 14.5246 33.2421 14.8143C33.3388 15.104 33.5034 15.3635 33.7208 15.5688L40.4051 21.8771L34.3087 25.534L28.2122 22.7913L24.5544 24.4369C24.2882 24.5569 24.0548 24.7447 23.8752 24.9832C23.6957 25.2218 23.5756 25.5036 23.5259 25.8031C23.4761 26.1026 23.4984 26.4104 23.5905 26.6987C23.6826 26.9869 23.8418 27.2465 24.0536 27.4539V27.4539Z" stroke="#31305A" stroke-width="4" stroke-linecap="round" stroke-linejoin="round"/>
    <path d="M84.672 30V16.9091H93.3396V19.1911H87.4397V22.3104H92.7643V24.5923H87.4397V30H84.672ZM97.8731 16.9091V30H95.1501V16.9091H97.8731ZM101.736 33.6818C101.39 33.6818 101.066 33.6541 100.764 33.5987C100.466 33.5476 100.218 33.4815 100.022 33.4006L100.636 31.3679C100.956 31.4659 101.243 31.5192 101.499 31.5277C101.759 31.5362 101.983 31.4766 102.17 31.3487C102.362 31.2209 102.517 31.0036 102.637 30.6967L102.797 30.2812L99.2746 20.1818H102.138L104.171 27.392H104.273L106.325 20.1818H109.208L105.392 31.0611C105.209 31.5895 104.959 32.0497 104.644 32.4418C104.333 32.8381 103.939 33.1428 103.461 33.3558C102.984 33.5732 102.409 33.6818 101.736 33.6818ZM111.678 30H108.712L113.232 16.9091H116.798L121.311 30H118.345L115.066 19.9006H114.964L111.678 30ZM111.493 24.8544H118.499V27.0149H111.493V24.8544ZM123.542 30L120.87 20.1818H123.625L125.146 26.7784H125.236L126.821 20.1818H129.525L131.136 26.7401H131.219L132.715 20.1818H135.463L132.798 30H129.915L128.227 23.8253H128.106L126.418 30H123.542ZM139.715 30.1854C139.089 30.1854 138.531 30.0767 138.041 29.8594C137.551 29.6378 137.163 29.3118 136.877 28.8814C136.596 28.4467 136.456 27.9055 136.456 27.2578C136.456 26.7124 136.556 26.2543 136.756 25.8835C136.956 25.5128 137.229 25.2145 137.574 24.9886C137.919 24.7628 138.311 24.5923 138.75 24.4773C139.193 24.3622 139.658 24.2812 140.144 24.2344C140.715 24.1747 141.175 24.1193 141.524 24.0682C141.874 24.0128 142.127 23.9318 142.285 23.8253C142.443 23.7187 142.522 23.5611 142.522 23.3523V23.3139C142.522 22.9091 142.394 22.5959 142.138 22.3743C141.887 22.1527 141.529 22.0419 141.064 22.0419C140.574 22.0419 140.184 22.1506 139.894 22.3679C139.605 22.581 139.413 22.8494 139.319 23.1733L136.801 22.9688C136.929 22.3722 137.18 21.8565 137.555 21.4219C137.93 20.983 138.414 20.6463 139.006 20.4119C139.603 20.1733 140.293 20.054 141.077 20.054C141.622 20.054 142.144 20.1179 142.643 20.2457C143.146 20.3736 143.591 20.5717 143.979 20.8402C144.371 21.1087 144.68 21.4538 144.906 21.8757C145.132 22.2933 145.245 22.794 145.245 23.3778V30H142.662V28.6385H142.585C142.428 28.9453 142.217 29.2159 141.953 29.4503C141.688 29.6804 141.371 29.8615 141 29.9936C140.63 30.1214 140.201 30.1854 139.715 30.1854ZM140.495 28.3061C140.896 28.3061 141.25 28.2273 141.556 28.0696C141.863 27.9077 142.104 27.6903 142.279 27.4176C142.453 27.1449 142.541 26.8359 142.541 26.4908V25.4489C142.456 25.5043 142.338 25.5554 142.189 25.6023C142.044 25.6449 141.88 25.6854 141.697 25.7237C141.514 25.7578 141.331 25.7898 141.147 25.8196C140.964 25.8452 140.798 25.8686 140.649 25.8899C140.329 25.9368 140.05 26.0114 139.811 26.1136C139.573 26.2159 139.387 26.3544 139.255 26.5291C139.123 26.6996 139.057 26.9126 139.057 27.1683C139.057 27.5391 139.191 27.8224 139.46 28.0185C139.733 28.2102 140.078 28.3061 140.495 28.3061ZM148.687 33.6818C148.342 33.6818 148.018 33.6541 147.715 33.5987C147.417 33.5476 147.17 33.4815 146.974 33.4006L147.587 31.3679C147.907 31.4659 148.195 31.5192 148.45 31.5277C148.71 31.5362 148.934 31.4766 149.121 31.3487C149.313 31.2209 149.469 31.0036 149.588 30.6967L149.748 30.2812L146.226 20.1818H149.089L151.122 27.392H151.224L153.276 20.1818H156.159L152.343 31.0611C152.16 31.5895 151.91 32.0497 151.595 32.4418C151.284 32.8381 150.89 33.1428 150.413 33.3558C149.935 33.5732 149.36 33.6818 148.687 33.6818Z" fill="#31305A"/>
</svg>
