<svg width="6822" height="1546" viewBox="0 0 6822 1546" fill="none" xmlns="http://www.w3.org/2000/svg">
<path d="M95.8233 958.858L285.962 1219.18C311.315 1253.93 343.662 1275.79 378.193 1281.5C412.723 1287.22 447.592 1276.48 477.615 1250.89L1241.2 601.928L1147.39 433.788C1122.99 390.209 1088.73 360.829 1050.81 350.956C1012.88 341.083 973.796 351.368 940.606 379.953L716.676 572.43L414.067 424.938L330.849 477.298C324.624 481.199 319.17 487.33 314.99 495.124C310.811 502.918 308.041 512.125 306.936 521.897C305.83 531.668 306.425 541.689 308.665 551.036C310.905 560.383 314.719 568.755 319.754 575.38L474.589 778.918L333.371 896.912L192.154 808.417L107.423 861.514C101.259 865.386 95.852 871.444 91.6921 879.141C87.5322 886.837 84.7505 895.929 83.5989 905.594C82.4472 915.258 82.9619 925.19 85.0964 934.491C87.2308 943.791 90.9177 952.166 95.8233 958.858V958.858Z" stroke="#31305A" stroke-width="164.81" stroke-linecap="round" stroke-linejoin="round"/>
<path d="M1603.81 1330V564.249H2110.82V697.732H1765.71V880.196H2077.17V1013.68H1765.71V1330H1603.81ZM2376.01 564.249V1330H2216.73V564.249H2376.01ZM2601.94 1545.37C2581.75 1545.37 2562.81 1543.75 2545.11 1540.51C2527.66 1537.52 2513.2 1533.65 2501.74 1528.92L2537.63 1410.01C2556.33 1415.75 2573.15 1418.86 2588.11 1419.36C2603.31 1419.86 2616.4 1416.37 2627.37 1408.89C2638.58 1401.42 2647.68 1388.7 2654.66 1370.76L2664.01 1346.45L2457.99 755.687H2625.5L2744.4 1177.45H2750.38L2870.4 755.687H3039.03L2815.81 1392.07C2805.1 1422.98 2790.51 1449.9 2772.07 1472.83C2753.87 1496.01 2730.81 1513.83 2702.9 1526.3C2674.98 1539.01 2641.33 1545.37 2601.94 1545.37ZM3183.55 1330H3010.06L3274.4 564.249H3483.04L3747.02 1330H3573.53L3381.71 739.235H3375.73L3183.55 1330ZM3172.7 1029.01H3582.5V1155.39H3172.7V1029.01ZM3877.51 1330L3721.22 755.687H3882.37L3971.36 1141.55H3976.59L4069.32 755.687H4227.48L4321.7 1139.31H4326.56L4414.06 755.687H4574.83L4418.92 1330H4250.29L4151.58 968.811H4144.47L4045.76 1330H3877.51ZM4823.57 1340.84C4786.93 1340.84 4754.28 1334.49 4725.61 1321.77C4696.94 1308.81 4674.26 1289.74 4657.56 1264.57C4641.11 1239.14 4632.88 1207.48 4632.88 1169.6C4632.88 1137.69 4638.74 1110.89 4650.46 1089.21C4662.17 1067.52 4678.12 1050.07 4698.31 1036.86C4718.51 1023.65 4741.44 1013.68 4767.11 1006.95C4793.04 1000.22 4820.21 995.483 4848.62 992.741C4882.03 989.251 4908.95 986.01 4929.39 983.019C4949.83 979.779 4964.66 975.043 4973.88 968.811C4983.1 962.579 4987.71 953.356 4987.71 941.142V938.899C4987.71 915.218 4980.24 896.897 4965.28 883.935C4950.57 870.973 4929.64 864.492 4902.47 864.492C4873.8 864.492 4850.99 870.849 4834.04 883.561C4817.09 896.025 4805.87 911.729 4800.39 930.673L4653.07 918.708C4660.55 883.811 4675.26 853.649 4697.19 828.224C4719.13 802.549 4747.42 782.857 4782.07 769.148C4816.97 755.189 4857.35 748.209 4903.21 748.209C4935.12 748.209 4965.65 751.948 4994.82 759.426C5024.23 766.904 5050.28 778.495 5072.96 794.199C5095.9 809.903 5113.97 830.094 5127.18 854.771C5140.39 879.199 5147 908.488 5147 942.638V1330H4995.94V1250.36H4991.45C4982.23 1268.31 4969.89 1284.13 4954.44 1297.84C4938.98 1311.3 4920.41 1321.9 4898.73 1329.63C4877.04 1337.1 4851.99 1340.84 4823.57 1340.84ZM4869.19 1230.92C4892.62 1230.92 4913.31 1226.3 4931.26 1217.08C4949.2 1207.61 4963.29 1194.9 4973.51 1178.94C4983.73 1162.99 4988.84 1144.92 4988.84 1124.73V1063.78C4983.85 1067.02 4977 1070.01 4968.27 1072.76C4959.8 1075.25 4950.2 1077.62 4939.48 1079.86C4928.76 1081.85 4918.04 1083.72 4907.33 1085.47C4896.61 1086.96 4886.89 1088.33 4878.16 1089.58C4859.47 1092.32 4843.14 1096.69 4829.18 1102.67C4815.22 1108.65 4804.38 1116.75 4796.65 1126.97C4788.92 1136.94 4785.06 1149.41 4785.06 1164.36C4785.06 1186.05 4792.91 1202.62 4808.62 1214.09C4824.57 1225.31 4844.76 1230.92 4869.19 1230.92ZM5348.34 1545.37C5328.15 1545.37 5309.21 1543.75 5291.51 1540.51C5274.06 1537.52 5259.6 1533.65 5248.14 1528.92L5284.03 1410.01C5302.73 1415.75 5319.55 1418.86 5334.51 1419.36C5349.71 1419.86 5362.8 1416.37 5373.77 1408.89C5384.99 1401.42 5394.08 1388.7 5401.06 1370.76L5410.41 1346.45L5204.39 755.687H5371.9L5490.8 1177.45H5496.78L5616.8 755.687H5785.43L5562.21 1392.07C5551.5 1422.98 5536.91 1449.9 5518.47 1472.83C5500.27 1496.01 5477.21 1513.83 5449.3 1526.3C5421.38 1539.01 5387.73 1545.37 5348.34 1545.37Z" fill="#31305A"/>
</svg>
