<?xml version="1.0" standalone="no"?>
<!DOCTYPE svg PUBLIC "-//W3C//DTD SVG 20010904//EN"
 "http://www.w3.org/TR/2001/REC-SVG-20010904/DTD/svg10.dtd">
<svg version="1.0" xmlns="http://www.w3.org/2000/svg"
 width="256.000000pt" height="256.000000pt" viewBox="0 0 256.000000 256.000000"
 preserveAspectRatio="xMidYMid meet">

<g transform="translate(0.000000,256.000000) scale(0.100000,-0.100000)"
fill="#ffffff" stroke="none">
<path d="M1131 2500 c-616 -78 -1081 -602 -1081 -1220 0 -679 551 -1230 1230
-1230 758 0 1336 681 1215 1430 -83 506 -491 918 -1000 1010 -87 15 -278 20
-364 10z m279 -140 c177 -23 348 -89 495 -191 96 -66 239 -215 299 -312 59
-95 107 -207 137 -323 20 -76 24 -113 24 -254 0 -141 -4 -178 -24 -254 -78
-299 -245 -524 -506 -683 -269 -163 -609 -198 -912 -93 -341 118 -606 405
-701 759 -22 85 -26 116 -26 266 0 142 3 184 21 255 28 110 80 232 139 328 61
97 203 245 300 312 223 154 496 223 754 190z"/>
<path d="M1637 1642 c-10 -10 -17 -33 -17 -51 0 -27 15 -48 102 -137 l101
-104 -595 0 c-587 0 -596 0 -622 -21 -33 -26 -36 -77 -5 -105 20 -18 47 -19
622 -22 l600 -2 -101 -104 c-91 -92 -102 -107 -102 -139 0 -41 27 -67 70 -67
34 0 271 238 300 301 45 100 23 153 -144 332 -114 122 -131 137 -160 137 -19
0 -40 -8 -49 -18z"/>
</g>
</svg>
